# xmcd
#
# Track frame offsets: 
#        150
#        13657
#        36150
#        50400
#
# Disc length: 866 seconds
#
# Revision: 2
# Processed by: cddbd v1.5.2PL0 Copyright (c) Steve Scherf et al.
# Submitted via: ExactAudioCopy v0.95b4
#
DISCID=2a036004
DTITLE=Böni - Bodelos
DYEAR=1998
DGENRE=Deutsch
TTITLE0=Pfaue
TTITLE1=Näbel
TTITLE2=s'Ändi chunnt
TTITLE3=Dä Chopf hät s'letschte Wort
EXTD=Böni Kontaktadresse: Daniel Böniger, Hanfrose 3, CH-8055 Zürich. 
EXTD=Email: rundumsmittelmeer@hotmail.com\n
EXTT0=
EXTT1=
EXTT2=
EXTT3=
PLAYORDER=
